<svg xmlns="http://www.w3.org/2000/svg" version="1.1" xmlns:xlink="http://www.w3.org/1999/xlink" xmlns:svgjs="http://svgjs.dev/svgjs" width="1000" height="1000"><g clip-path="url(#SvgjsClipPath1019)"><rect width="1000" height="1000" fill="#ffffff"></rect><g transform="matrix(10.9375,0,0,10.9375,150,150)"><svg xmlns="http://www.w3.org/2000/svg" version="1.1" xmlns:xlink="http://www.w3.org/1999/xlink" xmlns:svgjs="http://svgjs.dev/svgjs" width="64" height="64"><svg width="64" height="64" viewBox="0 0 64 64" fill="none" xmlns="http://www.w3.org/2000/svg">
<path fill-rule="evenodd" clip-rule="evenodd" d="M45.9865 8L40.067 20.6918H29.9528L35.8723 8H39.7592H45.9865ZM12.4428 36.5628L18.3585 23.871H28.4764L22.557 36.5628H17.3868H12.4428ZM21.0739 39.7326H15.9037H10.9597L8 46.0786H18.1142L21.0739 39.7326ZM28.6624 56.0001H24.7755H18.5445L24.4639 43.3083H30.6912H34.5781L28.6624 56.0001ZM41.2283 40.13H46.1723L52.0917 27.4382H47.144H41.9738L36.0581 40.13H41.2283ZM48.6273 24.2694H43.4571L46.4168 17.9235H56.531L53.575 24.2694H48.6273Z" fill="url(#paint0_linear_4626_1060)"></path>
<defs>
<linearGradient id="paint0_linear_4626_1060" x1="40.5694" y1="8" x2="24.2846" y2="55.9971" gradientUnits="userSpaceOnUse">
<stop stop-color="#4BF198"></stop>
<stop offset="1" stop-color="#05D665"></stop>
</linearGradient>
<clipPath id="SvgjsClipPath1019"><rect width="1000" height="1000" x="0" y="0" rx="350" ry="350"></rect></clipPath></defs>
</svg></svg></g></g></svg>