<svg width="20" height="20" viewBox="0 0 20 20" fill="none" xmlns="http://www.w3.org/2000/svg">
<path d="M14.4964 6.51071C14.7745 6.2326 14.7745 5.78169 14.4964 5.50357C14.2183 5.22546 13.7674 5.22546 13.4893 5.50357L10 8.99286L6.51071 5.50357C6.2326 5.22546 5.78169 5.22546 5.50357 5.50357C5.22546 5.78169 5.22546 6.2326 5.50357 6.51071L8.99286 10L5.50357 13.4893C5.22546 13.7674 5.22546 14.2183 5.50357 14.4964C5.78169 14.7745 6.2326 14.7745 6.51071 14.4964L10 11.0071L13.4893 14.4964C13.7674 14.7745 14.2183 14.7745 14.4964 14.4964C14.7745 14.2183 14.7745 13.7674 14.4964 13.4893L11.0071 10L14.4964 6.51071Z" fill="#5D646E"/>
</svg>
