<svg width="16" height="16" viewBox="0 0 16 16" fill="none" xmlns="http://www.w3.org/2000/svg">
<circle cx="8" cy="8" r="7.5" stroke="#999DA4"/>
<path d="M7.07556 9.93359C7.09509 8.22786 7.5964 7.70703 8.45577 7.17318C9.00265 6.84115 9.41931 6.35938 9.41931 5.67578C9.41931 4.86198 8.79431 4.34766 8.01306 4.34766C7.30994 4.34766 6.62634 4.77734 6.56775 5.74089H5.1615C5.21358 4.08073 6.46358 3.17578 8.01306 3.17578C9.70577 3.17578 10.8386 4.19141 10.8386 5.67578C10.8386 6.72396 10.3373 7.42057 9.51046 7.92839C8.72921 8.40365 8.42322 8.8724 8.40369 9.93359V10.0117H7.07556V9.93359ZM6.86723 11.8997C6.86072 11.3919 7.2839 10.9753 7.79171 10.9753C8.29301 10.9753 8.70968 11.3919 8.71619 11.8997C8.70968 12.4076 8.29301 12.8177 7.79171 12.8242C7.2839 12.8177 6.86072 12.4076 6.86723 11.8997Z" fill="#999DA4"/>
</svg>
