<svg width="48" height="14" viewBox="0 0 48 14" fill="none" xmlns="http://www.w3.org/2000/svg">
<path d="M0.0722656 13V0.273438H2.70898V10.8203H8.19336V13H0.0722656ZM21.043 6.63672C21.043 10.7939 18.4678 13.1758 15.1016 13.1758C11.709 13.1758 9.14258 10.7764 9.14258 6.63672C9.14258 2.47949 11.709 0.0976562 15.1016 0.0976562C18.4678 0.0976562 21.043 2.47949 21.043 6.63672ZM11.832 6.63672C11.832 9.35254 13.124 10.8291 15.1016 10.8379C17.0615 10.8291 18.3623 9.35254 18.3535 6.63672C18.3623 3.91211 17.0615 2.44434 15.1016 2.43555C13.124 2.44434 11.832 3.91211 11.832 6.63672ZM31.3965 4.36914C31.0361 3.17383 30.0781 2.44434 28.6895 2.43555C26.7207 2.44434 25.3848 3.94727 25.3848 6.61914C25.3848 9.30859 26.6768 10.8291 28.707 10.8379C30.5264 10.8291 31.6074 9.80078 31.6426 8.20117H28.8828V6.21484H34.1914V7.79688C34.1914 11.1367 31.8975 13.1758 28.6895 13.1758C25.1211 13.1758 22.6953 10.6797 22.6953 6.6543C22.6953 2.52344 25.2793 0.0976562 28.6367 0.0976562C31.5107 0.0976562 33.7168 1.86426 34.0684 4.36914H31.3965ZM47.7793 6.63672C47.7793 10.7939 45.2041 13.1758 41.8379 13.1758C38.4453 13.1758 35.8789 10.7764 35.8789 6.63672C35.8789 2.47949 38.4453 0.0976562 41.8379 0.0976562C45.2041 0.0976562 47.7793 2.47949 47.7793 6.63672ZM38.5684 6.63672C38.5684 9.35254 39.8604 10.8291 41.8379 10.8379C43.7979 10.8291 45.0986 9.35254 45.0898 6.63672C45.0986 3.91211 43.7979 2.44434 41.8379 2.43555C39.8604 2.44434 38.5684 3.91211 38.5684 6.63672Z" fill="#05D665"/>
</svg>
